<svg xmlns="http://www.w3.org/2000/svg" xmlns:xlink="http://www.w3.org/1999/xlink" viewBox="0 0 500 500"><defs><clipPath id="freepik--clip-path--inject-146"><path d="M344.84,468.5c.42-8.88.54-29.33-5.52-48.41-8-25.29-24.08-59.4-27.69-65s0-12,0-12a191.57,191.57,0,0,0,9.23-43.75s2,.81,7.62,6,56.16,36.24,64.18,37.85,19.95-2.27,22.76-7.89-52.82-64.07-67.67-78.52-51-12-57-15.65-6.43-8.43-2.41-23.68,17.26-29.3,18.86-41.74-7.62-36.52-28.49-49S243,121.49,243,121.49s-11.64,10-13.25,17.66-.8,10.43-6,13.64-13.24,2-12.44,4.82,2.81,9.63,6.82,10c0,0-5.62,5.22-4.41,7.63a12,12,0,0,1,1.2,4.81s-1.2,3.21,0,5.62a40.92,40.92,0,0,1,2,4.82s1.2,8,7.22,9.63S241,201,241,201s-1.21,13.25-3.61,26.49-8.43,11.64-24.49,10.84-33.31,5.22-40.13,10.83S131,265.57,131,265.57s-7.63-31.71-8.43-34.92S121,213.8,121,205.77s2.81-22.08,3.61-28.9-18.06-8.83-18.87-5.62-5.61,44.55-9.23,61-1.6,37.32-2,52.57,4.81,22.08,11.23,21.28,27.3-2.81,47.77-4.42,39.33-12,39.33-12l2.81.4S184.8,306.11,186,316.54s8.83,17.66,11.24,20.47a53.25,53.25,0,0,1,5.22,8.43s2,12-1.61,16.45-16,26.09-22.07,51c-4.71,19.46-3.28,45.3-2.43,55.64" style="fill:#ccc;stroke:#263238;stroke-linecap:round;stroke-linejoin:round"></path></clipPath><clipPath id="freepik--clip-path-2--inject-146"><path d="M198.47,151.77l-20.57-2.85a2,2,0,0,0-.8-.29,2.11,2.11,0,0,0-2.38,1.79l-.17,1.29-.2,0,.18-1.29a2.1,2.1,0,1,0-4.17-.57l-.18,1.29-.19,0,.17-1.29a2.1,2.1,0,0,0-1.79-2.37,2.06,2.06,0,0,0-.86.06l-30.25-4.19a2,2,0,0,0-.81-.29,2.1,2.1,0,0,0-2.37,1.79l-.18,1.29-.2,0,.18-1.29a2.1,2.1,0,1,0-4.16-.57l-.18,1.28-.2,0,.18-1.29a2.11,2.11,0,0,0-1.8-2.37h0a2,2,0,0,0-.85.06L96.7,137.67a7.62,7.62,0,0,0-8.6,6.5l-3.2,23.06a7.63,7.63,0,0,0,6.51,8.6l29.9,4.15a2.14,2.14,0,0,0,1.06.47h0a2.1,2.1,0,0,0,2.37-1.79l.26-1.89.2,0-.26,1.89a2.1,2.1,0,1,0,4.16.57l.26-1.88.2,0-.26,1.88a2.1,2.1,0,0,0,1.79,2.37,2,2,0,0,0,1.15-.17L162,185.61a2.06,2.06,0,0,0,1,.47,2.09,2.09,0,0,0,2.37-1.79l.27-1.88.19,0-.26,1.89a2.1,2.1,0,1,0,4.17.57L170,183l.2,0-.27,1.88a2.11,2.11,0,0,0,1.8,2.37,2,2,0,0,0,1.15-.17l20.29,2.81a7.62,7.62,0,0,0,8.6-6.5l3.2-23.06A7.64,7.64,0,0,0,198.47,151.77Z" style="fill:#fff;stroke:#263238;stroke-linecap:round;stroke-linejoin:round"></path></clipPath><clipPath id="freepik--clip-path-3--inject-146"><path d="M258.46,96.88a32.21,32.21,0,0,0-12.74,3.42c-5.85,3.07-12.32,8.93-8.74,19.18,6,17.26,26.08,39.73,32.91,41.74a70,70,0,0,1,12,4.82s6,11.23-1.61,35.72-16.45,36.52-9.23,53.78,30.9,27.69,58.6,21.27,35.32-22.48,30.1-40.94-19.27-20.47-18.87-31.31,11.24-9.23,2.81-23.27-17.49-12.77-17.49-20.4,6.26-24.15-1.37-37.4C317.65,111,288.46,94.8,258.46,96.88Z" style="fill:#263238;stroke:#263238;stroke-linecap:round;stroke-linejoin:round"></path></clipPath><clipPath id="freepik--clip-path-4--inject-146"><path d="M380.78,328.88s-35,47.06-41.06,47.46-20.87-14.45-22.07-13.64-21.27,26.89-24.49,30.9,4,.8,4,.8-2.41,6.42,0,6.82,6.42-2.4,6.42-2.4-.8,5.62,1.6,4.81,7.23-4.81,7.23-4.81-4.42,5.62-.8,4.81,15.65-10,15.65-10,4.81,9.23,14.85,5.62,74.61-54.87,75-60.89-11.2-18.28-11.2-18.28" style="fill:#ccc;stroke:#263238;stroke-linecap:round;stroke-linejoin:round"></path></clipPath></defs><g id="freepik--background-simple--inject-146"><path d="M396.17,53.85s-50.53-41.27-116.25-23S186.68,105.79,149,144.72c-19.74,20.38-48.9,27.89-72.35,43.58-75,50.17-63.88,163-6.06,205.5,50.06,36.84,112.61,40.69,194,13.52S404.22,363.83,454.69,286,458.42,109.86,396.17,53.85Z" style="fill:#F28F8F"></path><path d="M396.17,53.85s-50.53-41.27-116.25-23S186.68,105.79,149,144.72c-19.74,20.38-48.9,27.89-72.35,43.58-75,50.17-63.88,163-6.06,205.5,50.06,36.84,112.61,40.69,194,13.52S404.22,363.83,454.69,286,458.42,109.86,396.17,53.85Z" style="fill:#fff;opacity:0.7000000000000001"></path></g></svg>