<?xml version="1.0" encoding="utf-8"?>
<!-- Generator: Adobe Illustrator 24.1.0, SVG Export Plug-In . SVG Version: 6.00 Build 0)  -->
<svg version="1.1" id="Layer_1" xmlns="http://www.w3.org/2000/svg" xmlns:xlink="http://www.w3.org/1999/xlink" x="0px" y="0px"
	 viewBox="0 0 100 16.6" style="enable-background:new 0 0 100 16.6;" xml:space="preserve">
<style type="text/css">
	.st0{fill:url(#SVGID_1_);}
	.st1{fill:url(#SVGID_2_);}
</style>
<linearGradient id="SVGID_1_" gradientUnits="userSpaceOnUse" x1="-49.4343" y1="-335.7599" x2="1.5301" y2="-335.7599" gradientTransform="matrix(-1 0 0 1 1.5304 344.1278)">
	<stop  offset="7.230000e-02" style="stop-color:#D6A330"/>
	<stop  offset="0.2929" style="stop-color:#EED663"/>
	<stop  offset="0.5561" style="stop-color:#D6A330"/>
	<stop  offset="0.7359" style="stop-color:#F5E572"/>
	<stop  offset="1" style="stop-color:#D6A330"/>
</linearGradient>
<path class="st0" d="M31.7,5.7c0-0.1,0-0.3,0.3-0.6c0.3-0.3,1-0.6,2.3-0.8c0.7-0.1,1.4,0,2.1,0.1s1.4,0.4,2,0.6
	c0.6,0.3,1.1,0.6,1.4,0.8C40,6,40.2,6.1,40.3,6.1s0.1,0.1,0.1,0.1s-0.2-0.1-0.6-0.2c-0.4-0.1-0.9-0.2-1.5-0.3S37,5.7,36.3,5.7
	c-0.7,0-1.3,0.1-1.9,0.1C33.3,5.9,32.7,6,32.3,6C31.9,6,31.7,5.8,31.7,5.7z M49.7,7.8c0.6,0.1,1.2-0.3,1.3-0.9S50.6,5.7,50,5.6
	c-0.6-0.1-1.2,0.3-1.3,0.9C48.6,7.1,49,7.7,49.7,7.8z M32.4,8.9c1-0.5,2.1-1.8,2.1-1.8s-1.8,0-2.8,0.5c-1,0.5-0.9,0.9-0.8,1.2
	C31.1,9,31.4,9.3,32.4,8.9z M13.6,8c-0.9-0.9-1.8-1.8-2.8-2.5C10.2,5.2,9.6,4.9,9,4.7C8.7,4.6,8.4,4.5,8.1,4.5s-0.7-0.1-1,0
	c-0.7,0-1.3,0.2-1.9,0.5C4.8,5.1,4.6,5.3,4.3,5.6C4.2,5.7,4,5.9,3.9,6L3.8,6.2c0,0.1-0.1,0.2-0.1,0.3C3.5,6.9,3.4,7.2,3.4,7.6
	c0,0.4,0,0.8,0.1,1.1c0.1,0.4,0.3,0.7,0.5,1c0.3,0.3,0.6,0.6,1,0.8c0.1,0,0.2,0.1,0.3,0.1s0.3,0,0.4,0.1c0.1,0,0.3,0,0.4,0
	s0.3,0,0.4,0c0.5-0.1,0.9-0.4,1.3-0.7c0.3-0.3,0.6-0.7,0.7-1c0.1-0.4,0.2-0.7,0.1-1C8.5,7.7,8.4,7.4,8.3,7.3C8.2,7.2,8.1,7.2,8,7.2
	C7.8,7.3,7.8,7.6,7.6,8C7.5,8.2,7.4,8.5,7.2,8.7C7,8.9,6.8,9.2,6.5,9.3C6.4,9.3,6.2,9.4,6,9.3c-0.2,0-0.3-0.1-0.5-0.2
	C5.2,9,5,8.6,4.9,8.2C4.8,7.9,4.8,7.7,4.8,7.5c0-0.2,0.1-0.4,0.2-0.6c0.2-0.4,0.5-0.8,1-1c0.2-0.1,0.4-0.2,0.7-0.3
	c0.3-0.1,0.5-0.1,0.8-0.2c0.3,0,0.5,0,0.8,0c0.3,0,0.5,0.1,0.8,0.2c1.1,0.3,2.1,0.9,3,1.7c1.4,1.2,2.5,2.7,4,3.9
	c0.2,0.2,0.4,0.3,0.7,0.5s0.5,0.4,0.9,0.5c0.3,0.2,0.7,0.3,1,0.4c0.4,0.1,0.7,0.2,1.1,0.2c0.7,0.1,1.4-0.1,1.9-0.3
	c0.2-0.1,0.4-0.2,0.5-0.3c0.1-0.1,0.1-0.2,0.1-0.3c0-0.1-0.2-0.1-0.4-0.1c-0.2,0-0.5,0.1-0.9,0.1c-0.3,0-0.7,0-1.1,0
	c-0.3-0.2-0.6-0.4-0.9-0.7c-0.5-0.4-0.9-1-1.2-1.6S17.1,8.5,17,7.9C17,7.3,17,6.8,17,6.5s0-0.6,0-0.8s0-0.3-0.1-0.4S16.8,5.1,16.7,5
	s-0.1,0-0.3,0s-0.2,0.1-0.4,0.3c-0.1,0.2-0.3,0.5-0.4,1c-0.1,0.5-0.2,1.1-0.1,1.8s0.4,1.6,1,2.3c0.2,0.2,0.4,0.4,0.6,0.6
	c-0.6-0.4-1.2-0.8-1.7-1.3C14.6,9,13.9,8.3,13.6,8z M0.1,6.3c0.1,0.3,0.4,0.6,1.4,0.2c1-0.5,2.1-1.8,2.1-1.8s-1.8,0-2.8,0.5
	C-0.1,5.5-0.1,6,0.1,6.3z M2.5,3.8c0.4,0,1-0.1,2.2-0.2c0.6,0,1.2-0.1,1.9-0.1c0.7,0,1.3,0,1.9,0.1C9.1,3.7,9.6,3.8,10,3.9
	c0.4,0.1,0.6,0.2,0.6,0.2S10.6,4,10.5,4c-0.1-0.1-0.2-0.2-0.4-0.3C9.8,3.5,9.3,3.2,8.7,2.9c-0.6-0.3-1.3-0.5-2-0.6
	C5.9,2.1,5.2,2.1,4.5,2.2c-1.3,0.1-2,0.5-2.4,0.7C1.9,3.2,1.9,3.4,1.9,3.5C2,3.7,2.1,3.8,2.5,3.8z M8,1.9C8.3,2.1,9,2.4,10,2.9
	c0.5,0.3,1.1,0.6,1.6,1s1.1,0.8,1.5,1.3s0.8,0.9,1,1.2C14.4,6.8,14.6,7,14.6,7s0-0.1,0-0.2c0-0.1-0.1-0.3-0.1-0.5
	c-0.1-0.4-0.3-0.9-0.6-1.5C13.5,4.2,13,3.6,12.5,3c-0.5-0.6-1.1-1-1.8-1.4c-0.3-0.2-0.6-0.3-0.8-0.4C9.6,1.1,9.4,1.1,9.2,1
	C9,1,8.8,0.9,8.7,0.9c-0.2,0-0.3,0-0.4,0C7.8,1,7.7,1.1,7.7,1.3C7.7,1.4,7.7,1.6,8,1.9z M21.9,9.8c0.1,0.4,0.2,0.9,0.4,1.3
	c0.2,0.3,0.3,0.5,0.5,0.7c0.2,0.2,0.4,0.4,0.6,0.6c0.5,0.3,1,0.6,1.5,0.8c0.4,0.1,0.8,0.2,1.2,0.3c0,0-0.1,0-0.1,0
	c-0.7,0.1-1.4,0.2-2,0.3c-0.3,0-0.6,0-0.9,0.1c-0.1,0-0.3,0-0.4,0c-0.1,0-0.3,0-0.4,0c-0.3,0-0.5,0-0.7,0c-0.1,0-0.2,0-0.3,0
	c-0.1,0-0.2,0-0.2,0c-0.3,0-0.5,0-0.5,0s0.1,0.1,0.4,0.2c0.1,0,0.1,0.1,0.2,0.1c0.1,0,0.2,0.1,0.3,0.1c0.2,0.1,0.4,0.2,0.7,0.3
	c0.1,0,0.3,0.1,0.4,0.1c0.1,0,0.3,0.1,0.4,0.1c0.3,0.1,0.6,0.1,1,0.2c0.7,0.1,1.5,0.1,2.3,0c0.8-0.1,1.6-0.4,2.2-0.7
	c0.3-0.2,0.6-0.3,0.9-0.5c0.1-0.1,0.3-0.2,0.4-0.3c0.1-0.1,0.2-0.2,0.3-0.3c0.1,0,0.1-0.1,0.2-0.2c0.2-0.1,0.5-0.2,0.7-0.2
	c0.2-0.1,0.4-0.2,0.6-0.3c-0.1,0.1-0.1,0.1-0.2,0.2c-0.5,0.5-0.9,1-1.4,1.4c-0.5,0.4-0.9,0.7-1.3,0.8c-0.4,0.2-0.8,0.3-1.1,0.3
	c-0.1,0-0.2,0-0.3,0c-0.1,0-0.1,0-0.1,0s0,0,0.1,0c0.1,0,0.2,0.1,0.3,0.1c0.3,0.1,0.7,0.2,1.3,0.2s1.2-0.2,1.8-0.5
	c0.6-0.3,1.3-0.8,1.8-1.4c0.5-0.6,0.9-1.2,1.3-1.7c0.2-0.4,0.4-0.7,0.6-1c0.5-0.3,0.9-0.6,1.3-0.9c-0.2,0.3-0.5,0.5-0.7,0.9
	c-0.5,0.7-0.8,1.4-1.1,2c-0.1,0.3-0.2,0.5-0.3,0.7S33.7,14,33.7,14s0.1,0,0.3-0.1c0.2-0.1,0.4-0.2,0.7-0.3c0.5-0.3,1.2-0.9,1.8-1.6
	s0.8-1.6,0.9-2.2c0-0.2,0-0.3,0.1-0.5c0.3-0.2,0.6-0.3,0.9-0.5c0.8-0.4,1.6-0.8,2.4-1c0.4-0.1,0.8-0.2,1.3-0.3s0.8-0.1,1.3-0.1
	c1.4,0,2.7,0.5,3.7,1.4c0.9,0.9,1.4,2.3,1.2,3.5c-0.1,0.6-0.4,1.4-1.2,1.9c-0.2,0.1-0.4,0.2-0.6,0.3c-0.2,0.1-0.4,0.1-0.7,0.2
	c-0.5,0.1-0.9,0-1.3-0.1s-0.8-0.3-1.1-0.6s-0.5-0.5-0.7-0.8c-0.3-0.5-0.5-0.9-0.7-0.9c-0.1,0-0.2,0.2-0.2,0.6c0,0.2,0.1,0.4,0.2,0.7
	s0.3,0.5,0.5,0.8c0.2,0.3,0.5,0.5,0.8,0.8s0.8,0.4,1.2,0.5c0.9,0.2,2,0.1,2.8-0.4c0.2-0.1,0.4-0.3,0.6-0.5c0.1-0.1,0.2-0.2,0.3-0.3
	s0.2-0.2,0.3-0.3c0.3-0.4,0.5-0.9,0.6-1.4c0.1-0.5,0.1-1,0.1-1.5c0-0.5-0.2-0.9-0.3-1.3c-0.1-0.2-0.2-0.4-0.3-0.6
	c-0.1-0.2-0.2-0.4-0.3-0.5c-0.1-0.2-0.3-0.3-0.4-0.5c-0.1-0.1-0.1-0.1-0.2-0.2c-0.1-0.1-0.1-0.1-0.2-0.2c-0.5-0.4-1.1-0.7-1.4-0.9
	C44.9,6.8,44,6.6,43,6.6c-1,0-1.9,0.1-2.9,0.4c-1.8,0.5-3.5,1.4-5.1,2.2c-1.6,0.8-3.2,1.7-4.8,2.1c-0.8,0.2-1.6,0.3-2.5,0.3
	c-0.4,0-0.8,0-1.2-0.1c-0.2,0-0.4-0.1-0.6-0.1c-0.2-0.1-0.4-0.1-0.5-0.2c-0.4-0.2-0.8-0.4-1-0.7c-0.3-0.3-0.5-0.6-0.6-0.9
	c0,0,0-0.1,0-0.1c0,0,0,0,0-0.1l0,0c0-0.1,0-0.1,0-0.2c0-0.1,0-0.3,0.1-0.4c0-0.1,0.1-0.3,0.2-0.4c0.1-0.1,0.2-0.2,0.3-0.3
	c0.2-0.2,0.4-0.3,0.6-0.4s0.3-0.1,0.3-0.3c0-0.1,0-0.1,0-0.2c0,0,0-0.1-0.1-0.1c0,0-0.1-0.1-0.2-0.1c0,0-0.1,0-0.1-0.1s-0.1,0-0.1,0
	c-0.1,0-0.2,0-0.3,0c-0.1,0-0.1,0-0.2,0s-0.1,0-0.2,0c-0.1,0-0.1,0-0.2,0c-0.1,0-0.1,0-0.2,0.1c-0.6,0.2-1.2,0.7-1.5,1.5
	c-0.1,0.2-0.1,0.4-0.2,0.7c0,0.1,0,0.2,0,0.4c0,0.1,0,0.1,0,0.2L21.9,9.8z"/>
<linearGradient id="SVGID_2_" gradientUnits="userSpaceOnUse" x1="-268.7039" y1="-335.7599" x2="-219.6686" y2="-335.7599" gradientTransform="matrix(1 0 0 1 319.6683 344.1278)">
	<stop  offset="7.230000e-02" style="stop-color:#D6A330"/>
	<stop  offset="0.2929" style="stop-color:#EED663"/>
	<stop  offset="0.5561" style="stop-color:#D6A330"/>
	<stop  offset="0.7359" style="stop-color:#F5E572"/>
	<stop  offset="1" style="stop-color:#D6A330"/>
</linearGradient>
<path class="st1" d="M67.7,6c-0.4,0-1-0.1-2.2-0.2c-0.6,0-1.2-0.1-1.9-0.1c-0.7,0-1.3,0-1.9,0.1c-0.6,0.1-1.1,0.2-1.5,0.3
	c-0.4,0.1-0.6,0.2-0.6,0.2s0,0,0.1-0.1c0.1-0.1,0.2-0.2,0.4-0.3c0.3-0.2,0.8-0.5,1.4-0.8s1.3-0.5,2-0.6c0.7-0.1,1.5-0.2,2.1-0.1
	C67,4.4,67.7,4.8,68,5c0.3,0.3,0.3,0.5,0.3,0.6C68.3,5.8,68.1,6,67.7,6z M69,8.7c0.1-0.3,0.2-0.7-0.8-1.2C67.3,7,65.5,7,65.5,7
	s1.2,1.4,2.1,1.8C68.6,9.3,68.9,9,69,8.7z M84.6,9.7c-0.5,0.5-1.1,0.9-1.7,1.3c0.2-0.2,0.4-0.4,0.6-0.6c0.5-0.7,0.9-1.5,1-2.3
	s0-1.4-0.1-1.8s-0.3-0.8-0.4-1C83.8,5.1,83.7,5,83.6,5c-0.1,0-0.2,0-0.3,0s-0.1,0.1-0.2,0.2S83,5.4,83,5.6c0,0.2,0,0.5,0,0.8
	c0,0.4,0,0.8-0.1,1.4c-0.1,0.6-0.3,1.2-0.6,1.8s-0.7,1.2-1.2,1.6c-0.3,0.3-0.6,0.5-0.9,0.7c-0.4,0-0.8,0.1-1.1,0
	c-0.4,0-0.7-0.1-0.9-0.1c-0.2,0-0.4,0-0.4,0.1c0,0.1,0,0.2,0.1,0.3c0.1,0.1,0.3,0.2,0.5,0.3c0.4,0.2,1.2,0.3,1.9,0.3
	c0.4,0,0.7-0.1,1.1-0.2c0.4-0.1,0.7-0.3,1-0.4c0.3-0.2,0.6-0.3,0.9-0.5c0.3-0.2,0.5-0.3,0.7-0.5c1.5-1.2,2.6-2.7,4-3.9
	c0.9-0.8,1.9-1.4,3-1.7c0.3-0.1,0.5-0.1,0.8-0.2c0.3,0,0.5,0,0.8,0c0.3,0,0.5,0.1,0.8,0.2c0.3,0.1,0.5,0.2,0.7,0.3
	c0.4,0.3,0.8,0.6,1,1c0.1,0.2,0.1,0.4,0.2,0.6c0,0.2,0,0.4-0.1,0.7c-0.1,0.4-0.4,0.8-0.7,1c-0.2,0.1-0.3,0.2-0.5,0.2
	c-0.2,0-0.3,0-0.5-0.1c-0.3-0.1-0.5-0.3-0.7-0.5c-0.2-0.2-0.3-0.5-0.4-0.7c-0.2-0.4-0.2-0.7-0.4-0.8c-0.1,0-0.2,0-0.3,0.1
	c-0.1,0.1-0.2,0.4-0.3,0.7c0,0.3,0,0.7,0.1,1s0.3,0.7,0.7,1c0.3,0.3,0.8,0.6,1.3,0.7c0.1,0,0.3,0,0.4,0c0.1,0,0.3,0,0.4,0
	s0.3,0,0.4-0.1s0.2-0.1,0.3-0.1c0.4-0.2,0.7-0.5,1-0.8s0.4-0.7,0.5-1c0.1-0.4,0.2-0.8,0.1-1.1c0-0.4-0.1-0.8-0.3-1.1
	c0-0.1-0.1-0.2-0.1-0.3L96.1,6c-0.1-0.2-0.2-0.3-0.4-0.4c-0.3-0.3-0.6-0.5-0.9-0.6c-0.6-0.3-1.3-0.5-1.9-0.5c-0.3,0-0.7,0-1,0
	c-0.3,0-0.6,0.1-0.9,0.2c-0.6,0.2-1.2,0.5-1.7,0.8c-1.1,0.7-1.9,1.6-2.8,2.5C86.1,8.3,85.4,9,84.6,9.7z M99.2,5.1
	c-1-0.5-2.8-0.5-2.8-0.5s1.2,1.4,2.1,1.8c1,0.5,1.3,0.1,1.4-0.2C100.1,6,100.1,5.5,99.2,5.1z M98.1,3.5c0.1-0.1,0.1-0.3-0.3-0.6
	c-0.3-0.3-1-0.6-2.3-0.8c-0.7-0.1-1.4,0-2.1,0.1c-0.7,0.1-1.4,0.4-2,0.6c-0.6,0.3-1.1,0.6-1.4,0.8c-0.2,0.1-0.3,0.2-0.4,0.3
	c-0.1,0.1-0.1,0.1-0.1,0.1S89.6,4,90,3.9c0.4-0.1,0.9-0.2,1.5-0.3s1.3-0.1,1.9-0.1c0.7,0,1.3,0.1,1.9,0.1c1.2,0.1,1.8,0.2,2.2,0.2
	C97.9,3.8,98.1,3.7,98.1,3.5z M92.3,1.3c0-0.1-0.1-0.3-0.6-0.4c-0.1,0-0.2,0-0.4,0c-0.2,0-0.3,0-0.5,0.1c-0.2,0-0.4,0.1-0.7,0.2
	c-0.3,0.1-0.5,0.2-0.8,0.4C88.7,2,88,2.4,87.5,3s-1,1.2-1.3,1.8s-0.5,1.1-0.7,1.5c-0.1,0.2-0.1,0.4-0.1,0.5c0,0.1,0,0.2,0,0.2
	s0.1-0.2,0.4-0.5c0.3-0.3,0.6-0.8,1-1.2c0.4-0.4,1-0.9,1.5-1.3c0.6-0.4,1.1-0.7,1.6-1c1-0.6,1.7-0.8,2-1.1
	C92.3,1.6,92.3,1.4,92.3,1.3z M78.1,9.7c0,0,0-0.1,0-0.2c0-0.1,0-0.2,0-0.4c0-0.2-0.1-0.5-0.2-0.7C77.6,7.7,77,7.2,76.5,7
	c-0.1,0-0.1,0-0.2-0.1c-0.1,0-0.1,0-0.2,0c-0.1,0-0.1,0-0.2,0c-0.1,0-0.1,0-0.2,0c-0.1,0-0.2,0-0.3,0c-0.1,0-0.1,0-0.1,0
	S75.2,7,75.1,7C75.1,7,75,7.1,75,7.1s-0.1,0.1-0.1,0.1c-0.1,0.1-0.1,0.1,0,0.2c0,0.1,0.2,0.2,0.3,0.3s0.4,0.2,0.6,0.4
	c0.1,0.1,0.2,0.2,0.3,0.3c0.1,0.1,0.2,0.3,0.2,0.4c0.1,0.1,0.1,0.3,0.1,0.4c0,0.1,0,0.1,0,0.2l0,0c0,0,0,0,0,0.1c0,0,0,0.1,0,0.1
	c-0.1,0.3-0.3,0.6-0.6,0.9c-0.3,0.3-0.7,0.5-1.1,0.7c-0.2,0.1-0.3,0.1-0.5,0.2c-0.2,0.1-0.4,0.1-0.6,0.1c-0.4,0.1-0.8,0.1-1.2,0.1
	c-0.8,0-1.6-0.1-2.5-0.3c-1.6-0.4-3.2-1.3-4.8-2.1c-1.6-0.8-3.3-1.7-5.1-2.2C59,6.7,58,6.5,57,6.6s-2,0.2-2.9,0.6
	c-0.4,0.2-0.9,0.4-1.4,0.9c-0.1,0-0.1,0.1-0.2,0.2c-0.1,0.1-0.1,0.1-0.2,0.2c-0.1,0.1-0.3,0.3-0.4,0.5c-0.1,0.2-0.2,0.3-0.3,0.5
	c-0.1,0.2-0.2,0.4-0.3,0.6c-0.2,0.4-0.3,0.9-0.3,1.3c0,0.5,0,1,0.1,1.5c0.1,0.5,0.3,1,0.6,1.4c0.1,0.1,0.2,0.2,0.3,0.3
	c0.1,0.1,0.2,0.2,0.3,0.3c0.2,0.2,0.4,0.3,0.6,0.5c0.9,0.5,1.9,0.7,2.8,0.4c0.5-0.1,0.9-0.3,1.2-0.5s0.6-0.5,0.8-0.8
	c0.2-0.3,0.4-0.6,0.5-0.8c0.1-0.3,0.2-0.5,0.2-0.7c0-0.4-0.1-0.6-0.2-0.6c-0.2,0-0.4,0.4-0.7,0.9c-0.2,0.3-0.4,0.5-0.7,0.8
	c-0.3,0.3-0.7,0.5-1.1,0.6c-0.4,0.1-0.9,0.2-1.3,0.1c-0.2,0-0.5-0.1-0.7-0.2s-0.4-0.2-0.6-0.3c-0.7-0.5-1.1-1.3-1.2-1.9
	c-0.2-1.2,0.2-2.6,1.2-3.5c1-0.9,2.3-1.4,3.7-1.4c0.4,0,0.9,0,1.3,0.1c0.4,0.1,0.8,0.2,1.3,0.3c0.8,0.3,1.6,0.6,2.4,1
	c0.3,0.2,0.6,0.3,0.9,0.5c0,0.1,0,0.3,0.1,0.5c0.1,0.6,0.4,1.5,0.9,2.2s1.2,1.3,1.7,1.6c0.3,0.2,0.5,0.3,0.7,0.3s0.3,0.1,0.3,0.1
	s0-0.1-0.1-0.3c-0.1-0.2-0.2-0.4-0.3-0.7c-0.2-0.6-0.6-1.3-1.1-2c-0.2-0.3-0.4-0.6-0.7-0.9c0.4,0.3,0.9,0.6,1.3,0.9
	c0.2,0.3,0.4,0.6,0.6,1c0.3,0.5,0.8,1.2,1.3,1.7c0.5,0.6,1.2,1.1,1.8,1.4c0.7,0.3,1.3,0.5,1.8,0.5c0.6,0,1-0.1,1.3-0.2
	c0.1,0,0.2-0.1,0.3-0.1c0.1,0,0.1,0,0.1,0s0,0-0.1,0c-0.1,0-0.2,0-0.3,0c-0.3,0-0.7-0.2-1.1-0.3c-0.4-0.2-0.9-0.5-1.3-0.8
	s-0.9-0.8-1.4-1.4c-0.1-0.1-0.1-0.1-0.2-0.2c0.2,0.1,0.4,0.2,0.6,0.3c0.2,0.1,0.5,0.2,0.7,0.2c0.1,0,0.1,0.1,0.2,0.2
	c0.1,0.1,0.2,0.2,0.3,0.3c0.1,0.1,0.3,0.2,0.4,0.3c0.3,0.2,0.6,0.3,0.9,0.5c0.6,0.3,1.4,0.5,2.2,0.7c0.8,0.1,1.6,0.1,2.3,0
	c0.3,0,0.7-0.1,1-0.2c0.2,0,0.3-0.1,0.4-0.1s0.3-0.1,0.4-0.1c0.3-0.1,0.5-0.2,0.7-0.3c0.1,0,0.2-0.1,0.3-0.1c0.1,0,0.2-0.1,0.2-0.1
	c0.3-0.2,0.4-0.2,0.4-0.2s-0.2,0-0.4,0c-0.1,0-0.2,0-0.2,0s-0.2,0-0.3,0c-0.2,0-0.4,0-0.7,0c-0.1,0-0.3,0-0.4,0c-0.1,0-0.3,0-0.4,0
	c-0.3,0-0.6,0-0.9-0.1c-0.6-0.1-1.3-0.1-2-0.3c0,0-0.1,0-0.1,0c0.4-0.1,0.8-0.2,1.2-0.3c0.5-0.2,1-0.4,1.5-0.8
	c0.2-0.2,0.4-0.4,0.6-0.6s0.4-0.5,0.5-0.7c0.2-0.4,0.4-0.8,0.4-1.3V9.7z"/>
</svg>
