<?xml version="1.0" encoding="utf-8"?>
<!-- Generator: Adobe Illustrator 24.1.0, SVG Export Plug-In . SVG Version: 6.00 Build 0)  -->
<svg version="1.1" id="Layer_1" xmlns="http://www.w3.org/2000/svg" xmlns:xlink="http://www.w3.org/1999/xlink" x="0px" y="0px"
	 viewBox="0 0 58 16" style="enable-background:new 0 0 58 16;" xml:space="preserve">
<style type="text/css">
	.st0{fill:#18191C;}
</style>
<g>
	<path class="st0" d="M54.04,5.58c-1.04,0-1.89-0.85-1.89-1.9c0-1.05,0.85-1.89,1.89-1.89c1.05,0,1.9,0.85,1.9,1.89
		C55.94,4.73,55.09,5.58,54.04,5.58z"/>
	<path class="st0" d="M54.04,14.36c-1.04,0-1.89-0.85-1.89-1.9c0-1.05,0.85-1.9,1.89-1.9c1.05,0,1.9,0.85,1.9,1.9
		C55.94,13.51,55.09,14.36,54.04,14.36z"/>
	<path class="st0" d="M43.94,5.58c-1.05,0-1.9-0.85-1.9-1.9c0-1.05,0.85-1.89,1.9-1.89c1.05,0,1.9,0.85,1.9,1.89
		C45.84,4.73,44.99,5.58,43.94,5.58z"/>
	<path class="st0" d="M43.94,14.36c-1.05,0-1.9-0.85-1.9-1.9c0-1.05,0.85-1.9,1.9-1.9c1.05,0,1.9,0.85,1.9,1.9
		C45.84,13.51,44.99,14.36,43.94,14.36z"/>
	<path class="st0" d="M33.84,5.58c-1.05,0-1.9-0.85-1.9-1.9c0-1.05,0.85-1.89,1.9-1.89c1.05,0,1.9,0.85,1.9,1.89
		C35.74,4.73,34.89,5.58,33.84,5.58z"/>
	<circle class="st0" cx="33.84" cy="12.46" r="1.9"/>
	<path class="st0" d="M23.74,5.58c-1.05,0-1.9-0.85-1.9-1.9c0-1.05,0.85-1.89,1.9-1.89c1.05,0,1.9,0.85,1.9,1.89
		C25.64,4.73,24.79,5.58,23.74,5.58z"/>
	<circle class="st0" cx="23.74" cy="12.46" r="1.9"/>
	<path class="st0" d="M13.65,5.58c-1.05,0-1.9-0.85-1.9-1.9c0-1.05,0.85-1.89,1.9-1.89c1.05,0,1.9,0.85,1.9,1.89
		C15.54,4.73,14.69,5.58,13.65,5.58z"/>
	<path class="st0" d="M13.65,14.36c-1.05,0-1.9-0.85-1.9-1.9c0-1.05,0.85-1.9,1.9-1.9c1.05,0,1.9,0.85,1.9,1.9
		C15.54,13.51,14.69,14.36,13.65,14.36z"/>
	<path class="st0" d="M3.55,5.58c-1.05,0-1.9-0.85-1.9-1.9c0-1.05,0.85-1.89,1.9-1.89c1.05,0,1.9,0.85,1.9,1.89
		C5.44,4.73,4.59,5.58,3.55,5.58z"/>
	<path class="st0" d="M3.55,14.36c-1.05,0-1.9-0.85-1.9-1.9c0-1.05,0.85-1.9,1.9-1.9c1.05,0,1.9,0.85,1.9,1.9
		C5.44,13.51,4.59,14.36,3.55,14.36z"/>
</g>
</svg>
