<?xml version="1.0" encoding="utf-8"?>
<!-- Generator: Adobe Illustrator 24.1.0, SVG Export Plug-In . SVG Version: 6.00 Build 0)  -->
<svg version="1.1" id="Layer_1" xmlns="http://www.w3.org/2000/svg" xmlns:xlink="http://www.w3.org/1999/xlink" x="0px" y="0px"
	 viewBox="0 0 88.4 29.7" style="enable-background:new 0 0 88.4 29.7;" xml:space="preserve">
<style type="text/css">
	.st0{fill:url(#SVGID_1_);}
</style>
<linearGradient id="SVGID_1_" gradientUnits="userSpaceOnUse" x1="0.7343" y1="15.4693" x2="87.4543" y2="15.4693" gradientTransform="matrix(1 0 0 -1 0 30.6786)">
	<stop  offset="7.230000e-02" style="stop-color:#D6A330"/>
	<stop  offset="0.2929" style="stop-color:#EED663"/>
	<stop  offset="0.5561" style="stop-color:#D6A330"/>
	<stop  offset="0.7359" style="stop-color:#F5E572"/>
	<stop  offset="1" style="stop-color:#D6A330"/>
</linearGradient>
<path class="st0" d="M23.7,26.5c-1,1.5-2,2.4-4,2.4c-1.9,0-3.3-0.8-4-4l-0.8-3.7c-0.7-3.2-1.3-5.3-4.2-5.3H7.2v8.5
	c0,2.7,0.5,3.1,3,3.2v0.7c-1.1-0.1-3-0.1-4.7-0.1c-1.9,0-3.7,0-4.8,0.1v-0.7c2.5-0.1,3-0.5,3-3.2V5.9c0-2.7-0.5-3.1-3-3.2V2
	c1,0.1,2.9,0.1,4.5,0.1C7.6,2.1,10,2,10.9,2c6,0,9,2.8,9,6.5c0,2.6-1.6,6.3-7.2,7.2l0.5,0.1c3.3,0.5,4.5,1.8,5.2,4.9l0.9,3.8
	c0.5,2.2,0.9,3,1.9,3c0.9,0,1.3-0.5,2-1.4L23.7,26.5z M7.2,5.9v9.2h2.5c5.3,0,6.4-2.8,6.4-6.2c0-3.9-1.7-6.2-6.2-6.2
	C7.7,2.7,7.2,3.4,7.2,5.9z M37.3,3c0.6,0.4,0.9,0.5,1.3,0.5c0.5,0,0.7-0.6,0.8-1.6h0.8c-0.1,1.3-0.2,2.9-0.2,7.6h-0.8
	c-0.3-3.5-2-7.2-6.1-7.2c-2.7,0-4.5,1.8-4.5,4.3c0,3.4,2.9,4.7,6.3,6.8c3.9,2.4,6.7,4.4,6.7,8.4c0,4.7-3.6,7.1-7.9,7.1
	c-2.6,0-4-0.7-5.1-1.4c-0.6-0.4-1-0.5-1.3-0.5c-0.5,0-0.7,0.6-0.8,1.6h-0.8c0.1-1.5,0.2-3.7,0.2-8.9h0.8c0.3,4.5,2,8.4,6.8,8.4
	c2.4,0,4.8-1.5,4.8-5c0-3-2.3-4.7-5.8-6.8c-3.5-2.1-6.6-4.1-6.6-8.3c0-4.4,3.3-6.5,7-6.5C35.2,1.6,36.3,2.3,37.3,3z M67.1,2v0.7
	c-1,0.2-2.1,1-2.9,3.2l-8.7,22.5h-0.3c-0.1,0-0.2,0-0.3,0L45.7,5.1c-0.7-1.9-1.8-2.3-2.6-2.4V2c1,0.1,2.6,0.1,4,0.1
	c1.9,0,3.7,0,4.8-0.1v0.7c-1.8,0.1-2.6,0.3-2.6,1.4c0,0.4,0.1,1,0.4,1.7l6.7,17.9L62.5,8c0.5-1.3,0.7-2.3,0.7-3
	c0-1.6-1.1-2.2-3.3-2.3V2c1.4,0.1,3,0.1,4.3,0.1C65.5,2.1,66.3,2.1,67.1,2z M74.8,24.4c0,2.7,0.6,3.1,3.8,3.2v0.7
	c-1.3-0.1-3.4-0.1-5.5-0.1c-1.9,0-3.7,0-4.8,0.1v-0.7c2.5-0.1,3-0.5,3-3.2V5.9c0-2.7-0.5-3.1-3-3.2V2c1,0.1,2.9,0.1,4.5,0.1
	c2.3,0,4.7-0.1,5.6-0.1c6,0,9,3,9,7.3c0,3.6-2.1,8.3-9.8,8.3h-2.9L74.8,24.4L74.8,24.4z M74.8,5.9v11h2.5c5.3,0,6.4-3.4,6.4-7.2
	c0-4.7-1.7-7-6.2-7C75.3,2.7,74.8,3.4,74.8,5.9z"/>
</svg>
