<?xml version="1.0" encoding="utf-8"?>
<!-- Generator: Adobe Illustrator 24.1.0, SVG Export Plug-In . SVG Version: 6.00 Build 0)  -->
<svg version="1.1" id="Layer_1" xmlns="http://www.w3.org/2000/svg" xmlns:xlink="http://www.w3.org/1999/xlink" x="0px" y="0px"
	 viewBox="0 0 100 16.7" style="enable-background:new 0 0 100 16.7;" xml:space="preserve">
<style type="text/css">
	.st0{fill:url(#SVGID_1_);}
	.st1{fill:url(#SVGID_2_);}
</style>
<linearGradient id="SVGID_1_" gradientUnits="userSpaceOnUse" x1="49.0653" y1="16.0629" x2="99.9997" y2="16.0629" gradientTransform="matrix(1 0 0 -1 0 24.5714)">
	<stop  offset="7.230000e-02" style="stop-color:#D6A330"/>
	<stop  offset="0.2929" style="stop-color:#EED663"/>
	<stop  offset="0.5561" style="stop-color:#D6A330"/>
	<stop  offset="0.7359" style="stop-color:#F5E572"/>
	<stop  offset="1" style="stop-color:#D6A330"/>
</linearGradient>
<path class="st0" d="M68.3,11.2c0.1,0.1,0.1,0.3-0.3,0.6c-0.3,0.3-1,0.6-2.3,0.8c-0.7,0.1-1.4,0-2.1-0.1c-0.7-0.1-1.4-0.4-2-0.6
	c-0.6-0.3-1.1-0.6-1.4-0.8c-0.2-0.1-0.3-0.2-0.4-0.3s-0.1-0.1-0.1-0.1s0.2,0.1,0.6,0.2c0.4,0.1,0.9,0.2,1.5,0.3s1.3,0.1,1.9,0.1
	c0.7,0,1.3-0.1,1.9-0.1c1.2-0.1,1.8-0.2,2.2-0.2C68.1,10.9,68.3,11.1,68.3,11.2z M50.4,9.1C49.8,9,49.2,9.4,49.1,10
	c-0.1,0.6,0.3,1.2,0.9,1.3c0.6,0.1,1.2-0.3,1.3-0.9C51.4,9.7,51,9.2,50.4,9.1z M67.6,8c-1,0.5-2.1,1.8-2.1,1.8s1.8,0,2.8-0.5
	c1-0.5,0.9-0.9,0.8-1.2C68.9,7.9,68.6,7.5,67.6,8z M86.4,8.9c0.9,0.9,1.8,1.8,2.8,2.5c0.5,0.3,1.1,0.6,1.7,0.8
	c0.3,0.1,0.6,0.2,0.9,0.2c0.3,0,0.7,0.1,1,0c0.7,0,1.3-0.2,1.9-0.5c0.3-0.2,0.6-0.4,0.8-0.6c0.1-0.1,0.3-0.3,0.4-0.4l0.2-0.2
	c0.1-0.1,0.1-0.2,0.1-0.3c0.2-0.4,0.3-0.7,0.3-1.1c0-0.4,0-0.8-0.1-1.1c-0.1-0.4-0.3-0.7-0.5-1c-0.3-0.3-0.6-0.6-1-0.8
	c-0.1,0-0.2-0.1-0.3-0.1c-0.1,0-0.3,0-0.4-0.1c-0.1,0-0.3,0-0.4,0s-0.3,0-0.4,0c-0.5,0.1-0.9,0.4-1.3,0.7s-0.6,0.7-0.7,1
	c-0.1,0.4-0.2,0.7-0.1,1c0.1,0.3,0.2,0.6,0.3,0.7c0.1,0.1,0.2,0.2,0.3,0.1c0.2-0.1,0.2-0.4,0.4-0.8c0.1-0.2,0.2-0.5,0.4-0.7
	s0.4-0.4,0.7-0.5c0.2-0.1,0.3-0.1,0.5-0.1c0.2,0,0.3,0.1,0.5,0.2c0.3,0.2,0.6,0.6,0.7,1c0.1,0.2,0.1,0.4,0.1,0.7
	c0,0.2-0.1,0.4-0.2,0.6c-0.2,0.4-0.5,0.8-1,1c-0.2,0.1-0.4,0.2-0.7,0.3c-0.3,0.1-0.5,0.1-0.8,0.2s-0.5,0-0.8,0
	c-0.3,0-0.5-0.1-0.8-0.2c-1.1-0.3-2.1-0.9-3-1.7c-1.4-1.2-2.5-2.7-4-3.9c-0.2-0.2-0.4-0.3-0.7-0.5s-0.6-0.4-0.9-0.5
	c-0.3-0.2-0.7-0.3-1-0.4c-0.4-0.1-0.7-0.2-1.1-0.2c-0.7-0.1-1.4,0.1-1.9,0.3c-0.2,0.1-0.4,0.2-0.5,0.3c-0.1,0.1-0.1,0.2-0.1,0.3
	C77.9,5,78.1,5,78.3,5c0.2,0,0.5-0.1,0.9-0.1c0.3,0,0.7,0,1.1,0c0.3,0.2,0.6,0.4,0.9,0.7c0.5,0.4,0.9,1,1.2,1.6
	C82.7,7.8,82.9,8.4,83,9c0.1,0.6,0.1,1,0.1,1.4s0,0.6,0,0.8c0,0.2,0,0.3,0.1,0.4c0.1,0.1,0.1,0.2,0.2,0.2s0.2,0,0.3,0
	s0.2-0.1,0.4-0.3c0.2-0.2,0.3-0.5,0.4-0.9c0.1-0.5,0.2-1.1,0.1-1.8s-0.4-1.6-1-2.3c-0.2-0.2-0.4-0.4-0.6-0.6
	c0.6,0.4,1.2,0.8,1.7,1.3C85.4,7.9,86.1,8.5,86.4,8.9z M99.9,10.6c-0.1-0.3-0.4-0.6-1.4-0.2c-1,0.5-2.1,1.8-2.1,1.8s1.8,0,2.8-0.5
	C100.1,11.3,100.1,10.9,99.9,10.6z M97.5,13c-0.4,0-1,0.1-2.2,0.2c-0.6,0-1.2,0.1-1.9,0.1c-0.7,0-1.3,0-1.9-0.1
	c-0.6-0.1-1.1-0.2-1.5-0.3c-0.4-0.1-0.6-0.2-0.6-0.2s0.1,0,0.1,0.1c0.1,0.1,0.2,0.2,0.4,0.3c0.3,0.2,0.8,0.5,1.4,0.8
	c0.6,0.3,1.3,0.5,2,0.6c0.7,0.1,1.5,0.2,2.1,0.1c1.3-0.1,2-0.5,2.3-0.8c0.3-0.3,0.3-0.5,0.3-0.6C98.1,13.2,97.9,13.1,97.5,13z
	 M92,15c-0.3-0.3-0.9-0.5-2-1.1c-0.5-0.3-1.1-0.6-1.6-1s-1.1-0.8-1.5-1.3s-0.8-0.9-1-1.2c-0.2-0.3-0.4-0.5-0.4-0.5s0,0.1,0,0.2
	c0,0.1,0.1,0.3,0.1,0.5c0.1,0.4,0.3,0.9,0.6,1.5s0.8,1.2,1.3,1.8c0.5,0.6,1.2,1,1.8,1.4c0.3,0.2,0.6,0.3,0.8,0.4
	c0.3,0.1,0.5,0.2,0.7,0.2c0.2,0.1,0.4,0.1,0.5,0.1c0.2,0,0.3,0,0.4,0c0.4,0,0.6-0.2,0.6-0.4C92.3,15.4,92.3,15.2,92,15z M78.1,7
	c-0.1-0.4-0.2-0.9-0.4-1.3c-0.2-0.3-0.3-0.5-0.5-0.7c-0.2-0.2-0.4-0.4-0.6-0.6C76,4.2,75.5,3.9,75,3.7c-0.4-0.1-0.8-0.2-1.2-0.3
	c0,0,0.1,0,0.1,0c0.7-0.1,1.4-0.2,2-0.3c0.3,0,0.6,0,0.9-0.1c0.1,0,0.3,0,0.4,0c0.1,0,0.3,0,0.4,0c0.3,0,0.5,0,0.7,0
	c0.1,0,0.2,0,0.3,0c0.1,0,0.2,0,0.2,0c0.3,0,0.4,0,0.4,0S79.2,3,78.9,2.9c-0.1,0-0.1-0.1-0.2-0.1c-0.1,0-0.2-0.1-0.3-0.1
	c-0.2-0.1-0.4-0.2-0.7-0.3c-0.1,0-0.3-0.1-0.4-0.1c-0.1,0-0.3-0.1-0.4-0.1c-0.3-0.1-0.6-0.1-1-0.2c-0.7-0.1-1.5-0.1-2.3,0
	c-0.8,0.1-1.6,0.4-2.2,0.7c-0.3,0.2-0.6,0.3-0.9,0.5c-0.1,0.1-0.3,0.2-0.4,0.3c-0.1,0.1-0.2,0.2-0.3,0.3c-0.1,0-0.1,0.1-0.2,0.2
	C69.5,3.8,69.2,3.9,69,4c-0.2,0.1-0.4,0.2-0.6,0.3c0.1-0.1,0.1-0.1,0.2-0.2c0.5-0.5,0.9-1,1.4-1.4s0.9-0.7,1.3-0.8
	c0.4-0.2,0.8-0.3,1.1-0.3c0.1,0,0.2,0,0.3,0c0.1,0,0.1,0,0.1,0s0,0-0.1,0c-0.1,0-0.2-0.1-0.3-0.1c-0.3-0.1-0.7-0.2-1.3-0.2
	s-1.2,0.2-1.8,0.5C68.6,2,68,2.5,67.4,3.1c-0.5,0.6-0.9,1.2-1.3,1.7c-0.2,0.4-0.4,0.7-0.6,1c-0.5,0.3-0.9,0.6-1.3,0.9
	c0.2-0.3,0.5-0.5,0.7-0.9c0.5-0.7,0.8-1.4,1.1-2c0.1-0.3,0.2-0.5,0.3-0.7s0.1-0.3,0.1-0.3s-0.1,0-0.3,0.1c-0.2,0.1-0.4,0.2-0.7,0.3
	c-0.5,0.3-1.2,0.9-1.8,1.6s-0.8,1.6-0.9,2.2c0,0.2,0,0.3-0.1,0.5c-0.3,0.2-0.6,0.3-0.9,0.5c-0.8,0.4-1.6,0.8-2.4,1
	c-0.4,0.1-0.8,0.2-1.3,0.3s-0.8,0.1-1.3,0.1c-1.4,0-2.7-0.5-3.7-1.4c-0.9-0.9-1.4-2.3-1.2-3.5c0.1-0.6,0.4-1.4,1.2-1.9
	c0.2-0.1,0.4-0.2,0.6-0.3c0.2-0.1,0.4-0.1,0.7-0.2c0.5-0.1,0.9,0,1.3,0.1s0.8,0.3,1.1,0.6s0.5,0.5,0.7,0.8c0.3,0.5,0.5,0.9,0.7,0.9
	c0.1,0,0.2-0.2,0.2-0.6c0-0.2-0.1-0.4-0.2-0.7S58,2.7,57.8,2.5c-0.2-0.3-0.5-0.5-0.8-0.8s-0.8-0.4-1.2-0.5c-0.9-0.2-2-0.1-2.8,0.4
	c-0.2,0.1-0.4,0.3-0.6,0.5c-0.1,0.1-0.2,0.2-0.3,0.3s-0.2,0.2-0.3,0.3c-0.3,0.4-0.5,0.9-0.6,1.4C51,4.5,51,5,51,5.5
	c0,0.5,0.2,0.9,0.3,1.3c0.1,0.2,0.2,0.4,0.3,0.6C51.7,7.6,51.8,7.8,52,8c0.1,0.2,0.3,0.3,0.4,0.5c0.1,0.1,0.1,0.1,0.2,0.2
	c0.1,0.1,0.1,0.1,0.2,0.2c0.5,0.4,1.1,0.7,1.4,0.9c0.9,0.4,1.9,0.6,2.9,0.6c1,0,1.9-0.1,2.9-0.4c1.8-0.5,3.5-1.4,5.1-2.2
	c1.6-0.8,3.2-1.7,4.8-2.1c0.8-0.2,1.7-0.3,2.5-0.3c0.4,0,0.8,0,1.2,0.1c0.2,0,0.4,0.1,0.6,0.1c0.2,0.1,0.4,0.1,0.5,0.2
	c0.4,0.2,0.8,0.4,1.1,0.7s0.5,0.6,0.6,0.9c0,0,0,0.1,0,0.1c0,0,0,0,0,0.1l0,0c0,0.1,0,0.1,0,0.2c0,0.1-0.1,0.3-0.1,0.4
	c-0.1,0.1-0.1,0.3-0.2,0.4c-0.1,0.1-0.2,0.2-0.3,0.3c-0.2,0.2-0.4,0.3-0.6,0.4s-0.3,0.1-0.3,0.3c0,0.1,0,0.1,0,0.2
	c0,0,0.1,0.1,0.1,0.1c0,0,0.1,0.1,0.2,0.1c0,0,0.1,0,0.1,0.1s0.1,0,0.1,0c0.1,0,0.2,0,0.3,0c0.1,0,0.1,0,0.2,0s0.1,0,0.2,0
	c0.1,0,0.1,0,0.2,0s0.1,0,0.2-0.1c0.6-0.2,1.2-0.7,1.5-1.5C78,8.2,78.1,8,78.1,7.7c0-0.1,0-0.2,0-0.4c0-0.1,0-0.1,0-0.2L78.1,7z"/>
<linearGradient id="SVGID_2_" gradientUnits="userSpaceOnUse" x1="-367.2135" y1="16.0729" x2="-318.1938" y2="16.0729" gradientTransform="matrix(-1 0 0 -1 -318.1379 24.5714)">
	<stop  offset="7.230000e-02" style="stop-color:#D6A330"/>
	<stop  offset="0.2929" style="stop-color:#EED663"/>
	<stop  offset="0.5561" style="stop-color:#D6A330"/>
	<stop  offset="0.7359" style="stop-color:#F5E572"/>
	<stop  offset="1" style="stop-color:#D6A330"/>
</linearGradient>
<path class="st1" d="M32.3,10.9c0.4,0,1,0.1,2.2,0.2c0.6,0,1.2,0.1,1.9,0.1c0.7,0,1.3,0,1.9-0.1c0.6-0.1,1.1-0.2,1.5-0.3
	c0.4-0.1,0.6-0.2,0.6-0.2s0,0-0.1,0.1c-0.1,0.1-0.2,0.2-0.4,0.3c-0.3,0.2-0.8,0.5-1.4,0.8s-1.3,0.5-2,0.6s-1.5,0.2-2.1,0.1
	c-1.3-0.1-2-0.5-2.3-0.8c-0.3-0.3-0.3-0.5-0.3-0.6C31.8,11.1,31.9,10.9,32.3,10.9z M31,8.2c-0.1,0.3-0.2,0.7,0.8,1.2
	c1,0.5,2.8,0.5,2.8,0.5S33.4,8.5,32.5,8C31.5,7.5,31.2,7.9,31,8.2z M15.4,7.2c0.5-0.5,1.1-0.9,1.7-1.3c-0.2,0.2-0.4,0.4-0.6,0.6
	c-0.5,0.7-0.9,1.5-1,2.3c-0.1,0.8,0,1.4,0.1,1.8s0.3,0.8,0.4,0.9c0.1,0.2,0.3,0.3,0.4,0.3c0.1,0,0.2,0,0.3,0s0.1-0.1,0.2-0.2
	c0-0.1,0.1-0.2,0.1-0.4c0-0.2,0-0.5,0-0.8c0-0.4,0-0.8,0.1-1.4c0.1-0.6,0.3-1.2,0.5-1.8s0.7-1.2,1.2-1.6c0.3-0.3,0.6-0.5,0.9-0.7
	c0.4,0,0.8-0.1,1.1,0c0.4,0,0.7,0.1,0.9,0.1c0.2,0,0.4,0,0.4-0.1c0-0.1,0-0.2-0.1-0.3c-0.1-0.1-0.3-0.2-0.5-0.3
	c-0.5-0.2-1.1-0.3-1.9-0.3c-0.4,0-0.7,0.1-1.1,0.2c-0.4,0.1-0.7,0.3-1,0.4c-0.3,0.2-0.6,0.3-0.9,0.5c-0.3,0.2-0.5,0.3-0.7,0.5
	c-1.5,1.2-2.6,2.7-4,3.9c-0.9,0.8-1.9,1.4-3,1.7c-0.3,0.1-0.5,0.1-0.8,0.2c-0.3,0-0.5,0-0.8,0c-0.3,0-0.5-0.1-0.8-0.2
	C6.4,11.3,6.2,11.1,6,11c-0.4-0.3-0.8-0.6-1-1C4.9,9.8,4.9,9.6,4.8,9.4c0-0.2,0-0.4,0.1-0.7c0.1-0.4,0.4-0.8,0.7-1
	c0.2-0.1,0.3-0.2,0.5-0.2c0.2,0,0.3,0,0.5,0.1c0.3,0.1,0.5,0.3,0.7,0.5c0.2,0.2,0.3,0.5,0.4,0.7c0.2,0.4,0.2,0.7,0.4,0.8
	c0.1,0,0.2,0,0.3-0.1c0.1-0.1,0.2-0.4,0.3-0.7c0-0.3,0-0.7-0.1-1c-0.1-0.4-0.4-0.7-0.7-1C7.5,6.5,7.1,6.2,6.6,6.1
	c-0.1,0-0.3,0-0.4,0c-0.1,0-0.3,0-0.4,0c-0.1,0-0.3,0-0.4,0.1c-0.1,0-0.3,0.1-0.4,0.1c-0.4,0.2-0.7,0.5-1,0.8s-0.4,0.7-0.5,1
	C3.5,8.5,3.4,8.9,3.4,9.2s0.1,0.8,0.3,1.1c0,0.1,0.1,0.2,0.1,0.3L4,10.9c0.1,0.1,0.2,0.3,0.4,0.4c0.3,0.3,0.6,0.5,0.9,0.6
	c0.6,0.3,1.3,0.5,2,0.5c0.3,0,0.7,0,1,0c0.3,0,0.6-0.1,0.9-0.2c0.6-0.2,1.2-0.5,1.7-0.8c1.1-0.7,1.9-1.6,2.8-2.5
	C14,8.5,14.6,7.9,15.4,7.2z M0.9,11.8c1,0.5,2.8,0.5,2.8,0.5s-1.1-1.4-2.1-1.8c-1-0.5-1.3-0.1-1.4,0.2C0,10.9-0.1,11.3,0.9,11.8z
	 M2,13.4c0,0.1,0,0.3,0.3,0.6c0.3,0.3,1,0.6,2.4,0.8c0.7,0.1,1.4,0,2.1-0.1c0.7-0.1,1.4-0.4,2-0.6c0.6-0.3,1.1-0.6,1.4-0.8
	c0.2-0.1,0.3-0.2,0.4-0.3s0.1-0.1,0.1-0.1S10.4,12.9,10,13c-0.4,0.1-0.9,0.2-1.5,0.3s-1.3,0.1-1.9,0.1c-0.7,0-1.3-0.1-1.9-0.1
	C3.6,13.1,2.9,13,2.5,13C2.2,13.1,2,13.2,2,13.4z M7.7,15.6c0,0.1,0.1,0.3,0.6,0.4c0.1,0,0.2,0,0.4,0c0.1,0,0.3,0,0.5-0.1
	c0.2,0,0.4-0.1,0.7-0.2c0.3-0.1,0.5-0.2,0.8-0.4c0.6-0.3,1.2-0.8,1.8-1.4s1-1.2,1.3-1.8s0.5-1.1,0.6-1.5c0.1-0.2,0.1-0.4,0.1-0.5
	c0-0.1,0-0.2,0-0.2s-0.1,0.2-0.4,0.5c-0.3,0.3-0.6,0.8-1,1.2c-0.4,0.4-1,0.9-1.5,1.3c-0.6,0.4-1.1,0.7-1.6,1c-1,0.6-1.6,0.8-2,1.1
	C7.8,15.2,7.7,15.4,7.7,15.6z M21.9,7.2c0,0,0,0.1,0,0.2c0,0.1,0,0.2,0,0.4C22,8,22,8.2,22.1,8.4c0.3,0.8,0.9,1.3,1.5,1.5
	c0.1,0,0.1,0,0.2,0.1c0.1,0,0.1,0,0.2,0c0.1,0,0.1,0,0.2,0c0.1,0,0.1,0,0.2,0c0.1,0,0.2,0,0.3,0c0,0,0.1,0,0.1,0c0,0,0.1,0,0.1-0.1
	c0.1,0,0.1-0.1,0.2-0.1c0,0,0.1-0.1,0.1-0.1c0-0.1,0-0.1,0-0.2c0-0.1-0.2-0.2-0.3-0.3S24.5,9,24.3,8.8c-0.1-0.1-0.2-0.2-0.3-0.3
	c-0.1-0.1-0.2-0.3-0.2-0.4s-0.1-0.3-0.1-0.4c0-0.1,0-0.1,0-0.2l0,0c0,0,0,0,0-0.1c0,0,0-0.1,0-0.1c0.1-0.3,0.3-0.6,0.6-0.9
	c0.3-0.3,0.7-0.5,1-0.7c0.2-0.1,0.4-0.1,0.5-0.2c0.2-0.1,0.4-0.1,0.6-0.1c0.4-0.1,0.8-0.1,1.2-0.1c0.8,0,1.6,0.1,2.5,0.3
	C31.8,6,33.4,6.9,35,7.7c1.6,0.8,3.3,1.7,5.1,2.2c0.9,0.2,1.9,0.4,2.9,0.4s2-0.2,2.9-0.6c0.4-0.2,0.9-0.4,1.4-0.9
	c0.1,0,0.1-0.1,0.2-0.2c0.1-0.1,0.1-0.1,0.2-0.2C47.9,8.3,48,8.1,48.1,8c0.1-0.2,0.2-0.3,0.3-0.5c0.1-0.2,0.2-0.4,0.3-0.6
	C48.9,6.4,49,6,49.1,5.5c0-0.5,0-1-0.1-1.5c-0.1-0.5-0.3-1-0.6-1.4c-0.1-0.1-0.2-0.2-0.3-0.3C48,2.2,47.9,2.1,47.8,2
	c-0.2-0.2-0.4-0.3-0.6-0.5c-0.9-0.5-1.9-0.7-2.8-0.4c-0.5,0.1-0.9,0.3-1.2,0.5s-0.6,0.5-0.8,0.8c-0.2,0.3-0.4,0.6-0.5,0.8
	c-0.1,0.3-0.2,0.5-0.2,0.7c0,0.4,0.1,0.6,0.2,0.6c0.2,0,0.4-0.4,0.7-0.9c0.2-0.3,0.4-0.5,0.7-0.8c0.3-0.3,0.7-0.5,1.1-0.6
	c0.4-0.1,0.9-0.2,1.3-0.1c0.2,0,0.5,0.1,0.7,0.2s0.4,0.2,0.6,0.3C47.6,3.2,48,4,48.1,4.6c0.2,1.2-0.2,2.6-1.2,3.5
	c-1,0.9-2.3,1.4-3.7,1.4c-0.4,0-0.9,0-1.3-0.1c-0.4-0.1-0.8-0.2-1.3-0.3c-0.8-0.3-1.6-0.6-2.4-1C38,8,37.7,7.8,37.4,7.6
	c0-0.1,0-0.3-0.1-0.5c-0.1-0.6-0.4-1.5-0.9-2.2c-0.5-0.8-1.2-1.3-1.8-1.6C34.4,3.1,34.2,3,34,2.9s-0.3-0.1-0.3-0.1s0,0.1,0.1,0.3
	c0.1,0.2,0.2,0.4,0.3,0.7c0.2,0.6,0.6,1.3,1.1,2c0.2,0.3,0.5,0.6,0.7,0.9c-0.4-0.3-0.9-0.6-1.3-0.9c-0.2-0.3-0.4-0.6-0.6-1
	c-0.3-0.5-0.8-1.2-1.3-1.7c-0.5-0.6-1.1-1.1-1.8-1.4c-0.6-0.3-1.3-0.5-1.8-0.5c-0.5,0-1,0.1-1.3,0.2c-0.1,0-0.2,0.1-0.3,0.1
	c-0.1,0-0.1,0-0.1,0s0,0,0.1,0c0.1,0,0.2,0,0.3,0c0.3,0,0.6,0.2,1.1,0.3c0.4,0.2,0.9,0.5,1.3,0.8c0.5,0.4,0.9,0.8,1.4,1.4
	c0.1,0.1,0.1,0.1,0.2,0.2c-0.2-0.1-0.4-0.2-0.6-0.3c-0.2-0.1-0.5-0.2-0.7-0.2c-0.1,0-0.1-0.1-0.2-0.2c-0.1-0.1-0.2-0.2-0.3-0.3
	c-0.1-0.1-0.3-0.2-0.4-0.3c-0.3-0.2-0.6-0.3-0.9-0.5c-0.6-0.3-1.4-0.5-2.2-0.7c-0.8-0.1-1.6-0.1-2.3,0c-0.4,0-0.7,0.1-1,0.2
	c-0.1,0-0.3,0.1-0.4,0.1c-0.1,0-0.3,0.1-0.4,0.1c-0.3,0.1-0.5,0.2-0.7,0.3c-0.1,0-0.2,0.1-0.3,0.1c-0.1,0-0.1,0.1-0.2,0.1
	c-0.3,0.2-0.4,0.2-0.4,0.2s0.2,0,0.5,0c0.1,0,0.1,0,0.2,0s0.2,0,0.3,0c0.2,0,0.4,0,0.7,0c0.1,0,0.3,0,0.4,0c0.1,0,0.3,0,0.4,0
	c0.3,0,0.6,0,0.9,0.1c0.6,0.1,1.3,0.1,2,0.3c0,0,0.1,0,0.1,0c-0.4,0.1-0.8,0.2-1.2,0.3c-0.5,0.2-1,0.4-1.5,0.8
	c-0.2,0.2-0.4,0.4-0.6,0.6c-0.2,0.2-0.4,0.5-0.5,0.7C22.2,6.1,22,6.6,22,7L21.9,7.2z"/>
</svg>
